<svg xmlns="http://www.w3.org/2000/svg" viewBox="0 0 897 86" width="897" height="86" preserveAspectRatio="xMidYMid meet" style="width: 100%; height: 100%; transform: translate3d(0px, 0px, 0px);"><defs><clipPath id="__lottie_element_921"><rect width="897" height="86" x="0" y="0"></rect></clipPath></defs><g clip-path="url(#__lottie_element_921)"><g transform="matrix(0.46000000834465027,0,0,0.46000000834465027,250.55999755859375,-83.144287109375)" opacity="1" style="display: block;"><g opacity="1" transform="matrix(1,0,0,1,464,246.26800537109375)"><path stroke-linecap="round" stroke-linejoin="round" fill-opacity="0" stroke="rgb(0,0,0)" stroke-opacity="1" stroke-width="23.664" d=" M896.5,-29.76799964904785 C685.1939697265625,-23.899999618530273 265.0010070800781,-12.10200023651123 53.69900131225586,-6.104000091552734 C-431.8080139160156,7.677999973297119 -896.5189819335938,11.368000030517578 -896.5,21.201000213623047 C-896.4959716796875,23.155000686645508 -878.14697265625,24.761999130249023 -856.4530029296875,26.66200065612793 C-791.8079833984375,32.32400131225586 -737.0059814453125,29.35300064086914 -696.2659912109375,24.841999053955078"></path></g></g><g transform="matrix(0.46000000834465027,0,0,0.46000000834465027,250.55958557128906,-83.143310546875)" opacity="1" style="display: block;"><g opacity="1" transform="matrix(1,0,0,1,521.3400268554688,306.6050109863281)"><path stroke-linecap="round" stroke-linejoin="round" fill-opacity="0" stroke="rgb(0,0,0)" stroke-opacity="1" stroke-width="23.664" d=" M693.5360107421875,-28.21500015258789 C231.1790008544922,-9.404999732971191 -231.1790008544922,9.404999732971191 -693.5360107421875,28.21500015258789"></path></g></g></g></svg>